<svg width="1600" height="900" viewBox="0 0 1600 900" fill="none" xmlns="http://www.w3.org/2000/svg">
  <defs>
    <linearGradient id="fade" x1="0" y1="0" x2="1600" y2="900" gradientUnits="userSpaceOnUse">
      <stop stop-color="#4AF626" stop-opacity="0.12"/>
      <stop offset="0.42" stop-color="#4AF626" stop-opacity="0.04"/>
      <stop offset="1" stop-color="#4AF626" stop-opacity="0"/>
    </linearGradient>
    <pattern id="grid" width="80" height="80" patternUnits="userSpaceOnUse">
      <path d="M80 0H0V80" stroke="#94A3B8" stroke-opacity="0.09" stroke-width="1"/>
      <circle cx="0" cy="0" r="2" fill="#4AF626" fill-opacity="0.15"/>
    </pattern>
    <filter id="blur" x="0" y="0" width="1600" height="900" filterUnits="userSpaceOnUse">
      <feGaussianBlur stdDeviation="28"/>
    </filter>
  </defs>
  <rect width="1600" height="900" fill="#0B1017"/>
  <rect width="1600" height="900" fill="url(#grid)"/>
  <path d="M-70 160C180 80 320 104 520 214C720 324 936 356 1184 278C1372 218 1510 208 1670 248V-70H-70V160Z" fill="url(#fade)" filter="url(#blur)"/>
  <path d="M-40 680C160 590 322 560 540 620C758 680 990 724 1232 650C1424 592 1548 586 1680 620V970H-40V680Z" fill="#4AF626" fill-opacity="0.04" filter="url(#blur)"/>
  <g opacity="0.55">
    <circle cx="1240" cy="170" r="5" fill="#4AF626" fill-opacity="0.65"/>
    <circle cx="1320" cy="230" r="4" fill="#4AF626" fill-opacity="0.5"/>
    <circle cx="1380" cy="290" r="6" fill="#4AF626" fill-opacity="0.38"/>
    <path d="M1240 170L1320 230L1380 290" stroke="#4AF626" stroke-opacity="0.25" stroke-width="2"/>
    <circle cx="240" cy="160" r="4" fill="#8AB4FF" fill-opacity="0.5"/>
    <circle cx="300" cy="220" r="5" fill="#8AB4FF" fill-opacity="0.35"/>
    <circle cx="360" cy="280" r="4" fill="#8AB4FF" fill-opacity="0.28"/>
    <path d="M240 160L300 220L360 280" stroke="#8AB4FF" stroke-opacity="0.16" stroke-width="2"/>
  </g>
</svg>